<svg xmlns="http://www.w3.org/2000/svg" width="1000" height="620" viewBox="0 0 1000 620">
  <rect width="1000" height="620" fill="#f8faf9"/>
  <g font-family="sans-serif" font-weight="700" font-size="34" fill="#163f39"><text x="55" y="65">A</text><text x="525" y="65">B</text><text x="55" y="350">C</text><text x="525" y="350">D</text></g>
  <g stroke="#577b75" stroke-width="3" fill="#fff"><rect x="45" y="82" width="430" height="220" rx="8"/><rect x="515" y="82" width="430" height="220" rx="8"/><rect x="45" y="367" width="430" height="220" rx="8"/><rect x="515" y="367" width="430" height="220" rx="8"/></g>
  <g transform="translate(105 126)"><rect width="310" height="120" rx="28" fill="#e8f1ef" stroke="#2b6257" stroke-width="6"/><rect x="34" y="25" width="70" height="52" fill="#9ed1db"/><rect x="120" y="25" width="70" height="52" fill="#9ed1db"/><rect x="206" y="25" width="70" height="52" fill="#9ed1db"/><circle cx="74" cy="125" r="20" fill="#333"/><circle cx="240" cy="125" r="20" fill="#333"/></g>
  <g transform="translate(575 120)"><rect width="310" height="142" rx="38" fill="#dce8ed" stroke="#31586c" stroke-width="6"/><rect x="40" y="28" width="230" height="55" rx="8" fill="#8ec1d7"/><circle cx="73" cy="145" r="20" fill="#333"/><circle cx="238" cy="145" r="20" fill="#333"/><text x="155" y="120" text-anchor="middle" font-family="sans-serif" font-size="25" fill="#31586c">SUBWAY</text></g>
  <g transform="translate(105 420)"><path d="M20 85 L65 30 H245 L292 85 V132 H20Z" fill="#f0c94e" stroke="#6d5b20" stroke-width="6"/><rect x="92" y="44" width="118" height="45" fill="#b8dce6"/><circle cx="78" cy="134" r="24" fill="#333"/><circle cx="235" cy="134" r="24" fill="#333"/><text x="155" y="126" text-anchor="middle" font-family="sans-serif" font-weight="700" font-size="26">TAXI</text></g>
  <g transform="translate(600 405)" stroke="#2f665b" stroke-width="9" fill="none"><circle cx="72" cy="130" r="55"/><circle cx="250" cy="130" r="55"/><path d="M72 130 L130 52 L182 130 L110 130 L165 55 L250 130 M130 52 L205 52"/><line x1="205" y1="52" x2="225" y2="20"/></g>
</svg>
