<svg xmlns="http://www.w3.org/2000/svg" viewBox="0 0 320 200" width="320" height="200" role="img" aria-label="older brother">
  <defs>
    <linearGradient id="bg" x1="0" y1="0" x2="0" y2="1">
      <stop offset="0" stop-color="#f7fbff"/>
      <stop offset="1" stop-color="#dbeafe"/>
    </linearGradient>
    <filter id="shadow" x="-20%" y="-20%" width="140%" height="150%">
      <feDropShadow dx="0" dy="4" stdDeviation="4" flood-color="#1e3a8a" flood-opacity=".16"/>
    </filter>
  </defs>
  <rect width="320" height="200" rx="14" fill="url(#bg)"/>
  <g opacity=".34">
    <circle cx="95" cy="78" r="22" fill="#9ca3af"/>
    <path d="M74 73c7-25 36-25 43 0-12-7-31-7-43 0z" fill="#4b5563"/>
    <rect x="67" y="104" width="56" height="52" rx="18" fill="#9ca3af"/>
    <path d="M67 122h56v34H67z" fill="#6b7280" opacity=".55"/>
    <circle cx="87" cy="78" r="3" fill="#374151"/>
    <circle cx="103" cy="78" r="3" fill="#374151"/>
    <path d="M88 91c5 4 10 4 15 0" fill="none" stroke="#374151" stroke-width="3" stroke-linecap="round"/>
  </g>
  <g filter="url(#shadow)">
    <circle cx="210" cy="64" r="31" fill="#f2c9a7"/>
    <path d="M176 58c10-35 55-35 68 0-16-10-49-10-68 0z" fill="#25324a"/>
    <rect x="169" y="101" width="82" height="68" rx="22" fill="#2563eb"/>
    <path d="M169 125h82v44h-82z" fill="#1d4ed8"/>
    <circle cx="198" cy="64" r="4" fill="#172033"/>
    <circle cx="222" cy="64" r="4" fill="#172033"/>
    <path d="M199 80c8 6 17 6 25 0" fill="none" stroke="#172033" stroke-width="4" stroke-linecap="round"/>
  </g>
  <path d="M139 100h35" fill="none" stroke="#60a5fa" stroke-width="5" stroke-linecap="round"/>
  <path d="M166 91l11 9-11 9" fill="none" stroke="#60a5fa" stroke-width="5" stroke-linecap="round" stroke-linejoin="round"/>
</svg>
