<svg xmlns="http://www.w3.org/2000/svg" viewBox="0 0 320 200" width="320" height="200" role="img" aria-label="younger sister">
  <defs>
    <linearGradient id="bg" x1="0" y1="0" x2="0" y2="1">
      <stop offset="0" stop-color="#fff7fb"/>
      <stop offset="1" stop-color="#fce7f3"/>
    </linearGradient>
    <filter id="shadow" x="-20%" y="-20%" width="140%" height="150%">
      <feDropShadow dx="0" dy="4" stdDeviation="4" flood-color="#9d174d" flood-opacity=".16"/>
    </filter>
  </defs>
  <rect width="320" height="200" rx="14" fill="url(#bg)"/>
  <g opacity=".34">
    <circle cx="105" cy="62" r="30" fill="#d1a386"/>
    <path d="M73 63c2-28 15-41 32-41s31 13 33 41c-14-10-50-10-65 0z" fill="#6b4b3e"/>
    <path d="M68 166l37-72 37 72z" fill="#9ca3af"/>
    <circle cx="94" cy="62" r="4" fill="#4b5563"/>
    <circle cx="116" cy="62" r="4" fill="#4b5563"/>
    <path d="M96 78c7 5 14 5 21 0" fill="none" stroke="#4b5563" stroke-width="4" stroke-linecap="round"/>
  </g>
  <g filter="url(#shadow)">
    <circle cx="215" cy="82" r="23" fill="#f0bf9a"/>
    <path d="M190 84c1-22 11-32 25-32s24 10 26 32c-12-8-39-8-51 0z" fill="#7c2d12"/>
    <path d="M184 164l31-56 31 56z" fill="#ec4899"/>
    <path d="M194 164h42l-21-35z" fill="#f9a8d4" opacity=".75"/>
    <circle cx="207" cy="82" r="3.5" fill="#3f1f16"/>
    <circle cx="224" cy="82" r="3.5" fill="#3f1f16"/>
    <path d="M207 95c6 4 12 4 18 0" fill="none" stroke="#3f1f16" stroke-width="3.5" stroke-linecap="round"/>
  </g>
  <path d="M147 105h31" fill="none" stroke="#f472b6" stroke-width="5" stroke-linecap="round"/>
  <path d="M170 96l11 9-11 9" fill="none" stroke="#f472b6" stroke-width="5" stroke-linecap="round" stroke-linejoin="round"/>
</svg>
