<svg xmlns="http://www.w3.org/2000/svg" viewBox="0 0 320 200" width="320" height="200" role="img" aria-label="engineer">
  <defs>
    <linearGradient id="bg" x1="0" y1="0" x2="0" y2="1">
      <stop offset="0" stop-color="#f0fdf4"/>
      <stop offset="1" stop-color="#bbf7d0"/>
    </linearGradient>
    <filter id="shadow" x="-20%" y="-20%" width="140%" height="150%">
      <feDropShadow dx="0" dy="4" stdDeviation="4" flood-color="#166534" flood-opacity=".14"/>
    </filter>
  </defs>
  <rect width="320" height="200" rx="14" fill="url(#bg)"/>
  <g filter="url(#shadow)">
    <rect x="184" y="86" width="78" height="50" rx="7" fill="#1f2937"/>
    <rect x="193" y="94" width="60" height="34" rx="3" fill="#dbeafe"/>
    <path d="M180 140h86l13 15H167z" fill="#374151"/>
    <circle cx="213" cy="111" r="8" fill="none" stroke="#22c55e" stroke-width="4"/>
    <path d="M213 97v7M213 118v7M199 111h7M220 111h7M203 101l5 5M218 116l5 5M223 101l-5 5M208 116l-5 5" stroke="#22c55e" stroke-width="3" stroke-linecap="round"/>
  </g>
  <g filter="url(#shadow)">
    <circle cx="106" cy="73" r="28" fill="#f0bf9a"/>
    <path d="M73 72h66c-2-25-16-41-33-41S75 47 73 72z" fill="#facc15"/>
    <path d="M75 70h62" stroke="#ca8a04" stroke-width="8" stroke-linecap="round"/>
    <rect x="69" y="104" width="74" height="62" rx="20" fill="#16a34a"/>
    <path d="M87 104l19 27 19-27z" fill="#dcfce7"/>
    <circle cx="96" cy="75" r="4" fill="#1f2937"/>
    <circle cx="116" cy="75" r="4" fill="#1f2937"/>
    <path d="M96 89c7 5 14 5 21 0" fill="none" stroke="#1f2937" stroke-width="4" stroke-linecap="round"/>
    <path d="M139 121l41-20" fill="none" stroke="#16a34a" stroke-width="14" stroke-linecap="round"/>
    <circle cx="181" cy="100" r="11" fill="#e5e7eb" stroke="#4b5563" stroke-width="5"/>
    <path d="M188 107l20 20" stroke="#4b5563" stroke-width="7" stroke-linecap="round"/>
  </g>
</svg>
